<svg width="68" height="36" viewBox="0 0 68 36" fill="none" xmlns="http://www.w3.org/2000/svg">
<path d="M15.5234 24.4062L19.5312 0.875H26.9609L22.9531 24.4062C22.6562 26.6094 21.9219 28.5547 20.75 30.2422C19.5938 31.9141 18.1016 33.2188 16.2734 34.1562C14.4609 35.0781 12.4375 35.5234 10.2031 35.4922C7.98438 35.4453 6.11719 34.9922 4.60156 34.1328C3.08594 33.2578 1.94531 32.0312 1.17969 30.4531C0.414062 28.875 0.0703125 26.9922 0.148438 24.8047L7.64844 24.8281C7.58594 25.6406 7.60938 26.4062 7.71875 27.125C7.84375 27.8438 8.13281 28.4297 8.58594 28.8828C9.03906 29.3359 9.75 29.5703 10.7188 29.5859C11.6875 29.6172 12.5 29.3828 13.1562 28.8828C13.8281 28.3672 14.3516 27.7109 14.7266 26.9141C15.1172 26.1172 15.3828 25.2812 15.5234 24.4062ZM36.0312 0.875H41.9609L45.6641 25.2031L57.8281 0.875H64.25L46.7188 35H41.7266L36.0312 0.875ZM32.3516 0.875H38.6562L35.375 26.4922L33.875 35H26.4453L32.3516 0.875ZM61.3438 0.875H67.6719L61.7656 35H54.2891L55.8828 25.8594L61.3438 0.875Z" fill="#3FC1C9"/>
</svg>
